HIERARCHY
ROOT Hips
{
	OFFSET 0.000000 89.005402 0.000000
	CHANNELS 6 Xposition Yposition Zposition Xrotation Yrotation Zrotation
	JOINT Spine
	{
		OFFSET 0.116900 10.681000 0.373400
		CHANNELS 3 Xrotation Yrotation Zrotation
		JOINT Spine1
		{
			OFFSET 0.000000 13.840401 0.053500
			CHANNELS 3 Xrotation Yrotation Zrotation
			JOINT Spine2
			{
				OFFSET 0.000000 14.712700 -0.366200
				CHANNELS 3 Xrotation Yrotation Zrotation
				JOINT Neck
				{
					OFFSET 0.000000 35.415497 -3.314200
					CHANNELS 3 Xrotation Yrotation Zrotation
					JOINT Head
					{
						OFFSET 0.000000 16.899200 1.218300
						CHANNELS 3 Xrotation Yrotation Zrotation
						JOINT HeadTop_End
						{
							OFFSET 0.000000 22.206207 2.192500
							CHANNELS 3 Xrotation Yrotation Zrotation
							End Site
							{
								OFFSET 0.000000 22.314178 0.000000
							}
						}
					}
				}
				JOINT LeftShoulder
				{
					OFFSET 12.896400 26.716293 -4.548400
					CHANNELS 3 Xrotation Yrotation Zrotation
					JOINT LeftArm
					{
						OFFSET 19.027000 -4.857010 -1.718400
						CHANNELS 3 Xrotation Yrotation Zrotation
						JOINT LeftForeArm
						{
							OFFSET 24.179897 0.000000 0.000000
							CHANNELS 3 Xrotation Yrotation Zrotation
							JOINT LeftHand
							{
								OFFSET 27.156403 0.000000 0.000000
								CHANNELS 3 Xrotation Yrotation Zrotation
								JOINT LeftHandIndex1
								{
									OFFSET 16.441200 0.000000 0.000000
									CHANNELS 3 Xrotation Yrotation Zrotation
									JOINT LeftHandIndex2
									{
										OFFSET 4.821899 0.000000 0.000000
										CHANNELS 3 Xrotation Yrotation Zrotation
										JOINT LeftHandIndex3
										{
											OFFSET 6.386497 0.000000 0.000000
											CHANNELS 3 Xrotation Yrotation Zrotation
											JOINT LeftHandIndex4
											{
												OFFSET 5.188988 0.000000 0.000000
												CHANNELS 3 Xrotation Yrotation Zrotation
												End Site
												{
													OFFSET -0.178703 5.185913 0.000177
												}
											}
										}
									}
								}
								JOINT LeftHandThumb1
								{
									OFFSET 6.534897 -5.032593 5.900300
									CHANNELS 3 Xrotation Yrotation Zrotation
									JOINT LeftHandThumb2
									{
										OFFSET 3.818176 -2.204422 2.204423
										CHANNELS 3 Xrotation Yrotation Zrotation
										JOINT LeftHandThumb3
										{
											OFFSET 3.252098 -1.877594 1.877601
											CHANNELS 3 Xrotation Yrotation Zrotation
											JOINT LeftHandThumb4
											{
												OFFSET 5.251778 -3.032120 3.032117
												CHANNELS 3 Xrotation Yrotation Zrotation
												End Site
												{
													OFFSET 0.000023 6.780014 0.000000
												}
											}
										}
									}
								}
							}
						}
					}
				}
				JOINT RightShoulder
				{
					OFFSET -12.896300 26.716293 -4.548400
					CHANNELS 3 Xrotation Yrotation Zrotation
					JOINT RightArm
					{
						OFFSET -19.027000 -4.857010 -1.718400
						CHANNELS 3 Xrotation Yrotation Zrotation
						JOINT RightForeArm
						{
							OFFSET -24.179897 0.000000 0.000000
							CHANNELS 3 Xrotation Yrotation Zrotation
							JOINT RightHand
							{
								OFFSET -27.156403 0.000000 0.000000
								CHANNELS 3 Xrotation Yrotation Zrotation
								JOINT RightHandThumb1
								{
									OFFSET -6.591202 -4.852203 5.988100
									CHANNELS 3 Xrotation Yrotation Zrotation
									JOINT RightHandThumb2
									{
										OFFSET -3.818176 -2.204422 2.204423
										CHANNELS 3 Xrotation Yrotation Zrotation
										JOINT RightHandThumb3
										{
											OFFSET -3.252098 -1.877594 1.877601
											CHANNELS 3 Xrotation Yrotation Zrotation
											JOINT RightHandThumb4
											{
												OFFSET -5.251778 -3.032120 3.032117
												CHANNELS 3 Xrotation Yrotation Zrotation
												End Site
												{
													OFFSET -0.000023 6.780014 0.000000
												}
											}
										}
									}
								}
								JOINT RightHandIndex1
								{
									OFFSET -16.029404 0.000000 0.000000
									CHANNELS 3 Xrotation Yrotation Zrotation
									JOINT RightHandIndex2
									{
										OFFSET -5.213303 0.000000 0.000000
										CHANNELS 3 Xrotation Yrotation Zrotation
										JOINT RightHandIndex3
										{
											OFFSET -6.386528 0.000000 0.000000
											CHANNELS 3 Xrotation Yrotation Zrotation
											JOINT RightHandIndex4
											{
												OFFSET -5.189026 0.000000 0.000000
												CHANNELS 3 Xrotation Yrotation Zrotation
												End Site
												{
													OFFSET 0.236702 5.183624 0.001972
												}
											}
										}
									}
								}
							}
						}
					}
				}
			}
		}
	}
	JOINT LeftUpLeg
	{
		OFFSET 14.073000 -7.904099 -1.463000
		CHANNELS 3 Xrotation Yrotation Zrotation
		JOINT LeftLeg
		{
			OFFSET -0.109806 -34.073280 4.093200
			CHANNELS 3 Xrotation Yrotation Zrotation
			JOINT LeftFoot
			{
				OFFSET 0.109806 -29.899420 -6.319000
				CHANNELS 3 Xrotation Yrotation Zrotation
				JOINT LeftToeBase
				{
					OFFSET 1.551100 -14.988700 20.535801
					CHANNELS 3 Xrotation Yrotation Zrotation
					JOINT LeftToe_End
					{
						OFFSET 0.221200 0.570800 13.248301
						CHANNELS 3 Xrotation Yrotation Zrotation
						End Site
						{
							OFFSET 0.000000 13.262435 0.000000
						}
					}
				}
			}
		}
	}
	JOINT RightUpLeg
	{
		OFFSET -13.839300 -7.904099 -1.463000
		CHANNELS 3 Xrotation Yrotation Zrotation
		JOINT RightLeg
		{
			OFFSET 0.109694 -34.073219 4.093300
			CHANNELS 3 Xrotation Yrotation Zrotation
			JOINT RightFoot
			{
				OFFSET -0.109694 -29.899384 -6.319200
				CHANNELS 3 Xrotation Yrotation Zrotation
				JOINT RightToeBase
				{
					OFFSET -1.551100 -14.988700 20.535801
					CHANNELS 3 Xrotation Yrotation Zrotation
					JOINT RightToe_End
					{
						OFFSET -0.221200 0.570900 13.248299
						CHANNELS 3 Xrotation Yrotation Zrotation
						End Site
						{
							OFFSET 0.000000 13.262440 0.000000
						}
					}
				}
			}
		}
	}
}
MOTION
Frames: 4
Frame Time: 0.033333
-3.527719 60.155838 1.431549 56.426303 -1.231985 -6.835536 33.038202 7.479406 0.121583 11.116479 0.462741 0.422741 11.112871 0.519480 0.443678 -31.752996 -1.681434 7.140730 -38.302348 1.631586 1.686415 0.000001 -0.000000 -0.000000 1.953967 -19.547402 -0.210100 1.679265 -29.292636 14.999632 -0.000005 -34.898380 -0.000005 -7.757599 -10.750841 20.585567 6.552659 3.126743 -83.624219 6.351876 5.829668 -94.918435 0.297287 1.844225 -18.312932 -0.000000 -0.000000 -0.000000 27.981122 -29.482716 -0.097864 20.335971 48.442649 4.457145 6.805459 53.179368 24.697044 -0.000002 0.000001 -0.000001 0.098040 17.387998 15.750433 -19.270820 31.154515 -4.976347 -0.000002 30.483787 -0.000003 10.410057 14.947099 -15.268246 14.180634 25.456306 7.489895 15.779634 -36.326375 -9.246129 39.853314 -71.536540 3.867598 0.000000 0.000000 0.000002 2.700589 3.330673 81.960030 4.755233 -4.656125 91.208106 0.855901 -2.692645 35.262320 0.000000 0.000001 0.000001 -120.361757 -12.470420 13.783889 73.998795 -4.055821 -5.224174 -10.513957 1.613042 -6.373805 -0.522976 0.000002 0.000001 0.000000 0.000001 0.000000 -115.820269 0.741246 -13.396629 70.720400 2.531741 8.628289 -10.542059 -1.190969 3.215150 -0.231316 -0.000000 -0.000001 -0.000000 0.000001 0.000000 
-3.517372 58.522224 1.349525 54.105238 -0.770500 -6.765136 32.866023 6.734009 0.364987 11.076128 0.432023 0.466967 11.072991 0.481635 0.485708 -31.885867 -1.502806 6.931013 -39.026495 1.337679 1.506818 -0.000002 -0.000000 -0.000000 1.862311 -19.152807 -1.045185 1.731828 -29.641150 13.441193 -0.000014 -34.640879 -0.000017 -6.402589 -10.933976 19.466562 6.552664 3.126742 -83.624219 6.351853 5.829649 -94.918415 0.297286 1.844225 -18.312932 0.000000 0.000001 -0.000000 27.981122 -29.482720 -0.097857 20.335980 48.442635 4.457131 6.805443 53.179371 24.697056 0.000000 -0.000001 0.000001 0.256446 16.537467 14.838046 -18.959548 32.231185 -2.168003 0.000005 29.462564 -0.000000 11.456349 15.231561 -14.867495 14.180644 25.456322 7.489896 15.779617 -36.326371 -9.246148 39.853252 -71.536519 3.867546 0.000000 -0.000000 0.000001 2.700588 3.330686 81.960050 4.755249 -4.656123 91.208092 0.855902 -2.692643 35.262320 0.000001 -0.000000 0.000001 -121.030132 -12.225203 13.843695 77.906244 -5.148563 -4.986080 -11.565765 1.575932 -5.974488 -0.605273 -0.000001 0.000000 0.000000 0.000001 0.000000 -116.487551 1.070585 -13.897814 75.105832 3.329328 8.013319 -11.941009 -1.228729 3.336379 -0.342922 -0.000003 0.000001 -0.000000 0.000000 0.000000 
-3.484760 56.838425 1.316879 51.692371 -0.459347 -6.762287 32.613774 6.062042 0.578463 11.012895 0.424030 0.519921 11.009960 0.469444 0.537728 -31.883511 -1.354301 6.794151 -39.448082 1.171215 1.242831 0.000000 -0.000000 -0.000000 1.799152 -18.764218 -1.701981 2.012103 -29.875196 11.743175 -0.000008 -34.389285 -0.000018 -5.283584 -11.097576 18.417817 6.552659 3.126736 -83.624219 6.351842 5.829684 -94.918401 0.297291 1.844231 -18.312924 0.000000 0.000000 -0.000000 27.981140 -29.482734 -0.097826 20.335987 48.442652 4.457129 6.805462 53.179378 24.697018 -0.000000 -0.000000 0.000000 0.346544 16.102113 14.220995 -18.751366 33.035931 0.384021 -0.000004 28.272422 -0.000002 12.740499 15.672291 -14.267426 14.180629 25.456299 7.489903 15.779636 -36.326375 -9.246122 39.853256 -71.536533 3.867541 0.000000 -0.000000 -0.000001 2.700582 3.330668 81.960030 4.755245 -4.656120 91.208099 0.855908 -2.692645 35.262310 0.000001 -0.000002 0.000000 -121.697264 -12.272125 13.827078 81.968513 -5.998495 -4.538925 -12.632135 1.552879 -5.782962 -0.773838 -0.000000 -0.000001 -0.000000 -0.000001 -0.000000 -117.020046 1.351546 -14.284879 79.391086 4.056739 7.392040 -13.274730 -1.274871 3.489221 -0.565319 -0.000002 -0.000000 0.000000 0.000000 0.000000 
-3.419371 55.174854 1.309555 48.866114 -0.227321 -6.677309 32.679040 5.403061 0.715109 11.046873 0.413478 0.548165 11.044103 0.455509 0.565269 -31.769706 -1.225352 6.776180 -39.966326 1.148176 0.703748 -0.000002 0.000000 0.000000 1.725287 -18.329962 -2.374557 2.654447 -30.034640 10.497056 0.000022 -34.107670 0.000009 -4.634319 -11.269590 17.411848 6.552649 3.126729 -83.624226 6.351850 5.829680 -94.918415 0.297280 1.844220 -18.312917 -0.000001 -0.000000 0.000001 27.981111 -29.482727 -0.097852 20.335993 48.442649 4.457110 6.805457 53.179365 24.697030 -0.000000 -0.000000 -0.000000 0.409191 15.828996 13.698055 -18.598812 33.864652 2.635888 0.000003 26.869150 0.000005 13.949744 16.230790 -13.591737 14.180627 25.456305 7.489905 15.779641 -36.326358 -9.246120 39.853259 -71.536540 3.867539 0.000001 -0.000000 0.000000 2.700580 3.330672 81.960037 4.755253 -4.656142 91.208099 0.855908 -2.692634 35.262320 0.000001 -0.000001 -0.000001 -121.927920 -12.407999 13.792487 86.104486 -6.613669 -3.953883 -13.743402 1.537995 -5.726256 -1.011054 0.000001 0.000000 0.000000 -0.000000 -0.000000 -117.149356 1.562347 -14.681331 83.533070 4.907508 6.783203 -14.479402 -1.297331 3.515432 -0.981497 -0.000002 0.000000 -0.000000 -0.000000 -0.000000 
